<svg xmlns="http://www.w3.org/2000/svg" xmlns:xlink="http://www.w3.org/1999/xlink" width="800" zoomAndPan="magnify" viewBox="0 0 600 74.999997" height="100" preserveAspectRatio="xMidYMid meet" version="1.0"><defs><g/><clipPath id="3f5c6f17f8"><path d="M 5.25 2.460938 L 75 2.460938 L 75 72.210938 L 5.25 72.210938 Z M 5.25 2.460938 " clip-rule="nonzero"/></clipPath></defs><g clip-path="url(#3f5c6f17f8)"><path fill="#dc2626" d="M 27.242188 2.53125 L 27.230469 2.546875 C 27.175781 2.550781 27.078125 2.554688 27.023438 2.558594 C 25.234375 2.691406 21.292969 4.050781 18.46875 7.886719 C 16.21875 10.964844 15.335938 14.824219 16.019531 18.621094 C 16.175781 19.367188 16.34375 20.0625 16.5625 20.71875 C 17.308594 23.003906 18.617188 25.191406 20.242188 27.367188 C 21.574219 29.300781 22.796875 30.917969 23.523438 32.054688 C 23.839844 32.53125 24.140625 33.046875 24.355469 33.578125 C 25.277344 35.59375 25.4375 38.15625 24.628906 40.566406 C 23.601562 43.648438 21.367188 45.527344 20.214844 46.738281 C 19.429688 47.472656 19.421875 48.136719 20.71875 47.964844 C 22.507812 47.832031 26.453125 46.488281 29.273438 42.652344 C 31.523438 39.574219 32.421875 35.699219 31.738281 31.902344 C 31.582031 31.160156 31.398438 30.460938 31.179688 29.804688 C 30.4375 27.519531 29.125 25.332031 27.503906 23.15625 C 26.171875 21.21875 24.945312 19.605469 24.21875 18.472656 C 23.902344 17.992188 23.609375 17.480469 23.386719 16.945312 C 22.46875 14.929688 22.292969 12.382812 23.101562 9.96875 C 24.128906 6.886719 26.359375 5 27.515625 3.785156 C 28.25 3.09375 28.316406 2.472656 27.242188 2.53125 Z M 43.632812 2.53125 L 43.617188 2.546875 C 43.566406 2.550781 43.464844 2.554688 43.414062 2.558594 C 41.625 2.691406 37.695312 4.050781 34.871094 7.886719 C 32.621094 10.964844 31.710938 14.824219 32.394531 18.621094 C 32.550781 19.367188 32.738281 20.0625 32.949219 20.71875 C 33.695312 23.003906 35.003906 25.191406 36.628906 27.367188 C 37.957031 29.300781 39.199219 30.917969 39.925781 32.054688 C 40.242188 32.53125 40.515625 33.046875 40.730469 33.578125 C 41.664062 35.59375 41.851562 38.15625 41.042969 40.566406 C 40.015625 43.648438 37.785156 45.523438 36.628906 46.738281 C 35.84375 47.472656 35.835938 48.121094 37.132812 47.964844 C 38.921875 47.832031 42.851562 46.488281 45.675781 42.652344 C 47.925781 39.574219 48.839844 35.699219 48.152344 31.902344 C 47.996094 31.160156 47.8125 30.460938 47.59375 29.804688 C 46.851562 27.519531 45.542969 25.332031 43.917969 23.15625 C 42.585938 21.21875 41.347656 19.605469 40.621094 18.472656 C 40.308594 17.992188 40.03125 17.476562 39.816406 16.945312 C 38.882812 14.929688 38.679688 12.371094 39.488281 9.957031 C 40.519531 6.875 42.75 5 43.902344 3.785156 C 44.640625 3.097656 44.707031 2.476562 43.632812 2.53125 Z M 60.03125 2.53125 L 60.03125 2.546875 C 59.980469 2.550781 59.882812 2.554688 59.828125 2.558594 C 58.039062 2.691406 54.109375 4.050781 51.289062 7.886719 C 49.035156 10.964844 48.136719 14.824219 48.820312 18.621094 C 48.980469 19.367188 49.15625 20.0625 49.367188 20.71875 C 50.109375 23.003906 51.417969 25.191406 53.042969 27.367188 C 54.375 29.300781 55.613281 30.917969 56.339844 32.054688 C 56.65625 32.53125 56.941406 33.046875 57.160156 33.578125 C 58.09375 35.59375 58.257812 38.15625 57.429688 40.566406 C 56.402344 43.648438 54.171875 45.523438 53.015625 46.738281 C 52.230469 47.472656 52.222656 48.121094 53.519531 47.964844 C 55.3125 47.832031 59.253906 46.488281 62.078125 42.652344 C 64.328125 39.574219 65.242188 35.699219 64.554688 31.902344 C 64.398438 31.160156 64.195312 30.460938 63.984375 29.804688 C 63.238281 27.519531 61.933594 25.332031 60.304688 23.15625 C 58.972656 21.21875 57.75 19.605469 57.023438 18.472656 C 56.707031 17.992188 56.414062 17.476562 56.191406 16.945312 C 55.253906 14.929688 55.082031 12.371094 55.90625 9.957031 C 56.933594 6.875 59.164062 5 60.320312 3.785156 C 61.058594 3.097656 61.109375 2.476562 60.03125 2.53125 Z M 67.007812 39.886719 C 66.8125 39.929688 66.777344 40.179688 66.925781 40.621094 C 67.085938 41.113281 67.199219 41.609375 67.28125 42.105469 C 67.410156 42.910156 67.410156 44.230469 67.28125 45.035156 C 66.054688 52.628906 55.40625 58.648438 42.132812 59.164062 C 41.113281 59.1875 39.457031 59.1875 38.441406 59.164062 C 25.167969 58.648438 14.507812 52.625 13.28125 45.035156 C 13.148438 44.230469 13.144531 42.910156 13.28125 42.105469 C 13.359375 41.617188 13.488281 41.128906 13.632812 40.648438 C 13.898438 39.863281 13.554688 39.660156 12.816406 40.214844 C 8.558594 43.332031 6.015625 47.109375 5.5 51.054688 C 5.394531 51.863281 5.398438 53.191406 5.5 54 C 6.765625 64.007812 20.878906 71.972656 38.425781 72.5 C 39.449219 72.519531 41.101562 72.519531 42.121094 72.5 C 59.667969 71.972656 73.789062 64.007812 75.058594 54 C 75.164062 53.1875 75.164062 51.863281 75.058594 51.054688 C 74.554688 47.101562 72.011719 43.324219 67.742188 40.199219 C 67.414062 39.957031 67.160156 39.851562 67.007812 39.886719 Z M 67.007812 39.886719 " fill-opacity="1" fill-rule="nonzero"/></g><g fill="#dc2626" fill-opacity="1"><g transform="translate(94.656947, 66.111691)"><g><path d="M 28.53125 0.84375 C 23.707031 0.84375 19.582031 0.015625 16.15625 -1.640625 C 12.738281 -3.296875 10.101562 -5.847656 8.25 -9.296875 C 6.394531 -12.753906 5.359375 -17.09375 5.140625 -22.3125 C 5.078125 -24.78125 5.046875 -27.148438 5.046875 -29.421875 C 5.046875 -31.691406 5.078125 -34.0625 5.140625 -36.53125 C 5.359375 -41.695312 6.4375 -46.003906 8.375 -49.453125 C 10.3125 -52.898438 13.003906 -55.476562 16.453125 -57.1875 C 19.898438 -58.90625 23.925781 -59.765625 28.53125 -59.765625 C 33.082031 -59.765625 37.082031 -58.90625 40.53125 -57.1875 C 43.976562 -55.476562 46.679688 -52.898438 48.640625 -49.453125 C 50.609375 -46.003906 51.675781 -41.695312 51.84375 -36.53125 C 51.957031 -34.0625 52.015625 -31.691406 52.015625 -29.421875 C 52.015625 -27.148438 51.957031 -24.78125 51.84375 -22.3125 C 51.675781 -17.09375 50.648438 -12.753906 48.765625 -9.296875 C 46.890625 -5.847656 44.238281 -3.296875 40.8125 -1.640625 C 37.394531 0.015625 33.300781 0.84375 28.53125 0.84375 Z M 28.53125 -6.3125 C 32.800781 -6.3125 36.296875 -7.601562 39.015625 -10.1875 C 41.734375 -12.769531 43.207031 -16.945312 43.4375 -22.71875 C 43.539062 -25.25 43.59375 -27.507812 43.59375 -29.5 C 43.59375 -31.488281 43.539062 -33.71875 43.4375 -36.1875 C 43.320312 -40.0625 42.601562 -43.203125 41.28125 -45.609375 C 39.96875 -48.023438 38.21875 -49.796875 36.03125 -50.921875 C 33.84375 -52.046875 31.34375 -52.609375 28.53125 -52.609375 C 25.726562 -52.609375 23.234375 -52.046875 21.046875 -50.921875 C 18.859375 -49.796875 17.101562 -48.023438 15.78125 -45.609375 C 14.457031 -43.203125 13.710938 -40.0625 13.546875 -36.1875 C 13.492188 -33.71875 13.46875 -31.488281 13.46875 -29.5 C 13.46875 -27.507812 13.492188 -25.25 13.546875 -22.71875 C 13.773438 -16.945312 15.265625 -12.769531 18.015625 -10.1875 C 20.765625 -7.601562 24.269531 -6.3125 28.53125 -6.3125 Z M 28.53125 -6.3125 "/></g></g></g><g fill="#dc2626" fill-opacity="1"><g transform="translate(151.640504, 66.111691)"><g><path d="M 8.171875 0 C 7.609375 0 7.144531 -0.179688 6.78125 -0.546875 C 6.414062 -0.910156 6.234375 -1.375 6.234375 -1.9375 L 6.234375 -41.828125 C 6.234375 -42.390625 6.414062 -42.851562 6.78125 -43.21875 C 7.144531 -43.582031 7.609375 -43.765625 8.171875 -43.765625 L 12.125 -43.765625 C 12.6875 -43.765625 13.148438 -43.582031 13.515625 -43.21875 C 13.878906 -42.851562 14.0625 -42.390625 14.0625 -41.828125 L 14.0625 -38.125 C 15.519531 -40.03125 17.351562 -41.585938 19.5625 -42.796875 C 21.78125 -44.003906 24.628906 -44.609375 28.109375 -44.609375 C 31.753906 -44.609375 34.851562 -43.804688 37.40625 -42.203125 C 39.96875 -40.609375 41.90625 -38.394531 43.21875 -35.5625 C 44.539062 -32.726562 45.203125 -29.429688 45.203125 -25.671875 L 45.203125 -1.9375 C 45.203125 -1.375 45.019531 -0.910156 44.65625 -0.546875 C 44.289062 -0.179688 43.828125 0 43.265625 0 L 39.0625 0 C 38.5 0 38.035156 -0.179688 37.671875 -0.546875 C 37.304688 -0.910156 37.125 -1.375 37.125 -1.9375 L 37.125 -25.25 C 37.125 -29.175781 36.164062 -32.25 34.25 -34.46875 C 32.34375 -36.6875 29.539062 -37.796875 25.84375 -37.796875 C 22.363281 -37.796875 19.570312 -36.6875 17.46875 -34.46875 C 15.363281 -32.25 14.3125 -29.175781 14.3125 -25.25 L 14.3125 -1.9375 C 14.3125 -1.375 14.128906 -0.910156 13.765625 -0.546875 C 13.398438 -0.179688 12.9375 0 12.375 0 Z M 8.171875 0 "/></g></g></g><g fill="#dc2626" fill-opacity="1"><g transform="translate(202.647943, 66.111691)"><g><path d="M 21.375 0.84375 C 18.238281 0.84375 15.546875 0.453125 13.296875 -0.328125 C 11.054688 -1.117188 9.234375 -2.070312 7.828125 -3.1875 C 6.421875 -4.3125 5.367188 -5.4375 4.671875 -6.5625 C 3.972656 -7.6875 3.59375 -8.585938 3.53125 -9.265625 C 3.476562 -9.878906 3.675781 -10.351562 4.125 -10.6875 C 4.570312 -11.019531 5.019531 -11.1875 5.46875 -11.1875 L 9.265625 -11.1875 C 9.546875 -11.1875 9.78125 -11.144531 9.96875 -11.0625 C 10.164062 -10.976562 10.4375 -10.742188 10.78125 -10.359375 C 11.507812 -9.566406 12.320312 -8.773438 13.21875 -7.984375 C 14.113281 -7.203125 15.21875 -6.554688 16.53125 -6.046875 C 17.851562 -5.546875 19.5 -5.296875 21.46875 -5.296875 C 24.320312 -5.296875 26.675781 -5.84375 28.53125 -6.9375 C 30.382812 -8.03125 31.3125 -9.644531 31.3125 -11.78125 C 31.3125 -13.1875 30.929688 -14.304688 30.171875 -15.140625 C 29.421875 -15.984375 28.078125 -16.742188 26.140625 -17.421875 C 24.203125 -18.097656 21.550781 -18.800781 18.1875 -19.53125 C 14.8125 -20.3125 12.140625 -21.273438 10.171875 -22.421875 C 8.210938 -23.578125 6.8125 -24.953125 5.96875 -26.546875 C 5.132812 -28.148438 4.71875 -29.960938 4.71875 -31.984375 C 4.71875 -34.054688 5.332031 -36.0625 6.5625 -38 C 7.800781 -39.9375 9.613281 -41.519531 12 -42.75 C 14.382812 -43.988281 17.367188 -44.609375 20.953125 -44.609375 C 23.867188 -44.609375 26.363281 -44.242188 28.4375 -43.515625 C 30.519531 -42.785156 32.234375 -41.875 33.578125 -40.78125 C 34.929688 -39.6875 35.941406 -38.601562 36.609375 -37.53125 C 37.285156 -36.46875 37.648438 -35.570312 37.703125 -34.84375 C 37.765625 -34.28125 37.597656 -33.816406 37.203125 -33.453125 C 36.804688 -33.085938 36.359375 -32.90625 35.859375 -32.90625 L 32.328125 -32.90625 C 31.929688 -32.90625 31.601562 -32.988281 31.34375 -33.15625 C 31.09375 -33.332031 30.859375 -33.53125 30.640625 -33.75 C 30.078125 -34.476562 29.414062 -35.207031 28.65625 -35.9375 C 27.90625 -36.664062 26.925781 -37.269531 25.71875 -37.75 C 24.507812 -38.226562 22.921875 -38.46875 20.953125 -38.46875 C 18.148438 -38.46875 16.046875 -37.878906 14.640625 -36.703125 C 13.242188 -35.523438 12.546875 -34.035156 12.546875 -32.234375 C 12.546875 -31.171875 12.851562 -30.21875 13.46875 -29.375 C 14.082031 -28.53125 15.257812 -27.769531 17 -27.09375 C 18.738281 -26.425781 21.320312 -25.703125 24.75 -24.921875 C 28.445312 -24.191406 31.363281 -23.207031 33.5 -21.96875 C 35.632812 -20.726562 37.148438 -19.296875 38.046875 -17.671875 C 38.941406 -16.046875 39.390625 -14.164062 39.390625 -12.03125 C 39.390625 -9.675781 38.71875 -7.515625 37.375 -5.546875 C 36.03125 -3.585938 34.007812 -2.03125 31.3125 -0.875 C 28.613281 0.269531 25.300781 0.84375 21.375 0.84375 Z M 21.375 0.84375 "/></g></g></g><g fill="#dc2626" fill-opacity="1"><g transform="translate(245.574988, 66.111691)"><g><path d="M 23.734375 0.84375 C 17.898438 0.84375 13.269531 -0.9375 9.84375 -4.5 C 6.425781 -8.0625 4.546875 -12.929688 4.203125 -19.109375 C 4.148438 -19.835938 4.125 -20.773438 4.125 -21.921875 C 4.125 -23.078125 4.148438 -24.019531 4.203125 -24.75 C 4.429688 -28.726562 5.359375 -32.21875 6.984375 -35.21875 C 8.609375 -38.226562 10.835938 -40.546875 13.671875 -42.171875 C 16.503906 -43.796875 19.832031 -44.609375 23.65625 -44.609375 C 27.914062 -44.609375 31.488281 -43.707031 34.375 -41.90625 C 37.269531 -40.113281 39.472656 -37.5625 40.984375 -34.25 C 42.503906 -30.945312 43.265625 -27.078125 43.265625 -22.640625 L 43.265625 -21.21875 C 43.265625 -20.59375 43.082031 -20.113281 42.71875 -19.78125 C 42.351562 -19.445312 41.890625 -19.28125 41.328125 -19.28125 L 12.203125 -19.28125 C 12.203125 -19.21875 12.203125 -19.101562 12.203125 -18.9375 C 12.203125 -18.769531 12.203125 -18.628906 12.203125 -18.515625 C 12.316406 -16.210938 12.820312 -14.066406 13.71875 -12.078125 C 14.613281 -10.085938 15.914062 -8.472656 17.625 -7.234375 C 19.34375 -6.003906 21.351562 -5.390625 23.65625 -5.390625 C 25.675781 -5.390625 27.359375 -5.695312 28.703125 -6.3125 C 30.046875 -6.925781 31.140625 -7.613281 31.984375 -8.375 C 32.828125 -9.132812 33.390625 -9.738281 33.671875 -10.1875 C 34.171875 -10.851562 34.5625 -11.253906 34.84375 -11.390625 C 35.125 -11.535156 35.570312 -11.609375 36.1875 -11.609375 L 40.3125 -11.609375 C 40.820312 -11.609375 41.257812 -11.453125 41.625 -11.140625 C 41.988281 -10.835938 42.140625 -10.40625 42.078125 -9.84375 C 42.023438 -9 41.578125 -7.972656 40.734375 -6.765625 C 39.890625 -5.566406 38.695312 -4.378906 37.15625 -3.203125 C 35.613281 -2.023438 33.707031 -1.054688 31.4375 -0.296875 C 29.164062 0.460938 26.597656 0.84375 23.734375 0.84375 Z M 12.203125 -25.078125 L 35.265625 -25.078125 L 35.265625 -25.328125 C 35.265625 -27.859375 34.800781 -30.101562 33.875 -32.0625 C 32.945312 -34.03125 31.613281 -35.585938 29.875 -36.734375 C 28.132812 -37.890625 26.0625 -38.46875 23.65625 -38.46875 C 21.238281 -38.46875 19.171875 -37.890625 17.453125 -36.734375 C 15.742188 -35.585938 14.441406 -34.03125 13.546875 -32.0625 C 12.648438 -30.101562 12.203125 -27.859375 12.203125 -25.328125 Z M 12.203125 -25.078125 "/></g></g></g><g fill="#dc2626" fill-opacity="1"><g transform="translate(292.710569, 66.111691)"><g><path d="M 8.171875 0 C 7.609375 0 7.144531 -0.179688 6.78125 -0.546875 C 6.414062 -0.910156 6.234375 -1.375 6.234375 -1.9375 L 6.234375 -41.828125 C 6.234375 -42.390625 6.414062 -42.851562 6.78125 -43.21875 C 7.144531 -43.582031 7.609375 -43.765625 8.171875 -43.765625 L 12.125 -43.765625 C 12.6875 -43.765625 13.148438 -43.582031 13.515625 -43.21875 C 13.878906 -42.851562 14.0625 -42.390625 14.0625 -41.828125 L 14.0625 -38.125 C 15.519531 -40.03125 17.351562 -41.585938 19.5625 -42.796875 C 21.78125 -44.003906 24.628906 -44.609375 28.109375 -44.609375 C 31.753906 -44.609375 34.851562 -43.804688 37.40625 -42.203125 C 39.96875 -40.609375 41.90625 -38.394531 43.21875 -35.5625 C 44.539062 -32.726562 45.203125 -29.429688 45.203125 -25.671875 L 45.203125 -1.9375 C 45.203125 -1.375 45.019531 -0.910156 44.65625 -0.546875 C 44.289062 -0.179688 43.828125 0 43.265625 0 L 39.0625 0 C 38.5 0 38.035156 -0.179688 37.671875 -0.546875 C 37.304688 -0.910156 37.125 -1.375 37.125 -1.9375 L 37.125 -25.25 C 37.125 -29.175781 36.164062 -32.25 34.25 -34.46875 C 32.34375 -36.6875 29.539062 -37.796875 25.84375 -37.796875 C 22.363281 -37.796875 19.570312 -36.6875 17.46875 -34.46875 C 15.363281 -32.25 14.3125 -29.175781 14.3125 -25.25 L 14.3125 -1.9375 C 14.3125 -1.375 14.128906 -0.910156 13.765625 -0.546875 C 13.398438 -0.179688 12.9375 0 12.375 0 Z M 8.171875 0 "/></g></g></g><g fill="#000000" fill-opacity="1"><g transform="translate(343.729963, 66.111691)"><g><path d="M 22.140625 0 C 21.578125 0 21.113281 -0.179688 20.75 -0.546875 C 20.382812 -0.910156 20.203125 -1.375 20.203125 -1.9375 L 20.203125 -51.421875 L 4.046875 -51.421875 C 3.484375 -51.421875 3.019531 -51.601562 2.65625 -51.96875 C 2.289062 -52.332031 2.109375 -52.796875 2.109375 -53.359375 L 2.109375 -56.90625 C 2.109375 -57.519531 2.289062 -58.007812 2.65625 -58.375 C 3.019531 -58.738281 3.484375 -58.921875 4.046875 -58.921875 L 44.609375 -58.921875 C 45.222656 -58.921875 45.710938 -58.738281 46.078125 -58.375 C 46.441406 -58.007812 46.625 -57.519531 46.625 -56.90625 L 46.625 -53.359375 C 46.625 -52.796875 46.441406 -52.332031 46.078125 -51.96875 C 45.710938 -51.601562 45.222656 -51.421875 44.609375 -51.421875 L 28.53125 -51.421875 L 28.53125 -1.9375 C 28.53125 -1.375 28.347656 -0.910156 27.984375 -0.546875 C 27.617188 -0.179688 27.128906 0 26.515625 0 Z M 22.140625 0 "/></g></g></g><g fill="#000000" fill-opacity="1"><g transform="translate(392.464795, 66.111691)"><g><path d="M 18.4375 0.84375 C 15.625 0.84375 13.066406 0.28125 10.765625 -0.84375 C 8.472656 -1.96875 6.625 -3.484375 5.21875 -5.390625 C 3.8125 -7.296875 3.109375 -9.457031 3.109375 -11.875 C 3.109375 -15.738281 4.679688 -18.820312 7.828125 -21.125 C 10.972656 -23.425781 15.066406 -24.941406 20.109375 -25.671875 L 32.65625 -27.4375 L 32.65625 -29.875 C 32.65625 -32.570312 31.882812 -34.675781 30.34375 -36.1875 C 28.800781 -37.707031 26.289062 -38.46875 22.8125 -38.46875 C 20.34375 -38.46875 18.320312 -37.960938 16.75 -36.953125 C 15.175781 -35.941406 14.082031 -34.648438 13.46875 -33.078125 C 13.132812 -32.234375 12.546875 -31.8125 11.703125 -31.8125 L 7.90625 -31.8125 C 7.289062 -31.8125 6.828125 -31.992188 6.515625 -32.359375 C 6.210938 -32.722656 6.0625 -33.160156 6.0625 -33.671875 C 6.0625 -34.515625 6.382812 -35.550781 7.03125 -36.78125 C 7.675781 -38.019531 8.671875 -39.226562 10.015625 -40.40625 C 11.359375 -41.582031 13.082031 -42.578125 15.1875 -43.390625 C 17.289062 -44.203125 19.859375 -44.609375 22.890625 -44.609375 C 26.253906 -44.609375 29.085938 -44.171875 31.390625 -43.296875 C 33.691406 -42.429688 35.5 -41.269531 36.8125 -39.8125 C 38.132812 -38.351562 39.09375 -36.695312 39.6875 -34.84375 C 40.28125 -32.988281 40.578125 -31.109375 40.578125 -29.203125 L 40.578125 -1.9375 C 40.578125 -1.375 40.390625 -0.910156 40.015625 -0.546875 C 39.648438 -0.179688 39.191406 0 38.640625 0 L 34.765625 0 C 34.148438 0 33.671875 -0.179688 33.328125 -0.546875 C 32.992188 -0.910156 32.828125 -1.375 32.828125 -1.9375 L 32.828125 -5.5625 C 32.097656 -4.550781 31.113281 -3.550781 29.875 -2.5625 C 28.644531 -1.582031 27.101562 -0.769531 25.25 -0.125 C 23.394531 0.519531 21.125 0.84375 18.4375 0.84375 Z M 20.203125 -5.46875 C 22.503906 -5.46875 24.609375 -5.957031 26.515625 -6.9375 C 28.421875 -7.925781 29.921875 -9.457031 31.015625 -11.53125 C 32.109375 -13.601562 32.65625 -16.210938 32.65625 -19.359375 L 32.65625 -21.71875 L 22.890625 -20.28125 C 18.910156 -19.71875 15.910156 -18.773438 13.890625 -17.453125 C 11.867188 -16.140625 10.859375 -14.472656 10.859375 -12.453125 C 10.859375 -10.878906 11.320312 -9.570312 12.25 -8.53125 C 13.175781 -7.5 14.351562 -6.726562 15.78125 -6.21875 C 17.207031 -5.71875 18.679688 -5.46875 20.203125 -5.46875 Z M 20.203125 -5.46875 "/></g></g></g><g fill="#000000" fill-opacity="1"><g transform="translate(438.927009, 66.111691)"><g><path d="M 8.25 0 C 7.6875 0 7.222656 -0.179688 6.859375 -0.546875 C 6.492188 -0.910156 6.3125 -1.375 6.3125 -1.9375 L 6.3125 -57.828125 C 6.3125 -58.390625 6.492188 -58.851562 6.859375 -59.21875 C 7.222656 -59.582031 7.6875 -59.765625 8.25 -59.765625 L 12.203125 -59.765625 C 12.816406 -59.765625 13.289062 -59.582031 13.625 -59.21875 C 13.96875 -58.851562 14.140625 -58.390625 14.140625 -57.828125 L 14.140625 -1.9375 C 14.140625 -1.375 13.96875 -0.910156 13.625 -0.546875 C 13.289062 -0.179688 12.816406 0 12.203125 0 Z M 8.25 0 "/></g></g></g><g fill="#000000" fill-opacity="1"><g transform="translate(459.380488, 66.111691)"><g><path d="M 23.734375 0.84375 C 17.898438 0.84375 13.269531 -0.9375 9.84375 -4.5 C 6.425781 -8.0625 4.546875 -12.929688 4.203125 -19.109375 C 4.148438 -19.835938 4.125 -20.773438 4.125 -21.921875 C 4.125 -23.078125 4.148438 -24.019531 4.203125 -24.75 C 4.429688 -28.726562 5.359375 -32.21875 6.984375 -35.21875 C 8.609375 -38.226562 10.835938 -40.546875 13.671875 -42.171875 C 16.503906 -43.796875 19.832031 -44.609375 23.65625 -44.609375 C 27.914062 -44.609375 31.488281 -43.707031 34.375 -41.90625 C 37.269531 -40.113281 39.472656 -37.5625 40.984375 -34.25 C 42.503906 -30.945312 43.265625 -27.078125 43.265625 -22.640625 L 43.265625 -21.21875 C 43.265625 -20.59375 43.082031 -20.113281 42.71875 -19.78125 C 42.351562 -19.445312 41.890625 -19.28125 41.328125 -19.28125 L 12.203125 -19.28125 C 12.203125 -19.21875 12.203125 -19.101562 12.203125 -18.9375 C 12.203125 -18.769531 12.203125 -18.628906 12.203125 -18.515625 C 12.316406 -16.210938 12.820312 -14.066406 13.71875 -12.078125 C 14.613281 -10.085938 15.914062 -8.472656 17.625 -7.234375 C 19.34375 -6.003906 21.351562 -5.390625 23.65625 -5.390625 C 25.675781 -5.390625 27.359375 -5.695312 28.703125 -6.3125 C 30.046875 -6.925781 31.140625 -7.613281 31.984375 -8.375 C 32.828125 -9.132812 33.390625 -9.738281 33.671875 -10.1875 C 34.171875 -10.851562 34.5625 -11.253906 34.84375 -11.390625 C 35.125 -11.535156 35.570312 -11.609375 36.1875 -11.609375 L 40.3125 -11.609375 C 40.820312 -11.609375 41.257812 -11.453125 41.625 -11.140625 C 41.988281 -10.835938 42.140625 -10.40625 42.078125 -9.84375 C 42.023438 -9 41.578125 -7.972656 40.734375 -6.765625 C 39.890625 -5.566406 38.695312 -4.378906 37.15625 -3.203125 C 35.613281 -2.023438 33.707031 -1.054688 31.4375 -0.296875 C 29.164062 0.460938 26.597656 0.84375 23.734375 0.84375 Z M 12.203125 -25.078125 L 35.265625 -25.078125 L 35.265625 -25.328125 C 35.265625 -27.859375 34.800781 -30.101562 33.875 -32.0625 C 32.945312 -34.03125 31.613281 -35.585938 29.875 -36.734375 C 28.132812 -37.890625 26.0625 -38.46875 23.65625 -38.46875 C 21.238281 -38.46875 19.171875 -37.890625 17.453125 -36.734375 C 15.742188 -35.585938 14.441406 -34.03125 13.546875 -32.0625 C 12.648438 -30.101562 12.203125 -27.859375 12.203125 -25.328125 Z M 12.203125 -25.078125 "/></g></g></g><g fill="#000000" fill-opacity="1"><g transform="translate(506.516068, 66.111691)"><g><path d="M 8.171875 0 C 7.609375 0 7.144531 -0.179688 6.78125 -0.546875 C 6.414062 -0.910156 6.234375 -1.375 6.234375 -1.9375 L 6.234375 -41.828125 C 6.234375 -42.390625 6.414062 -42.851562 6.78125 -43.21875 C 7.144531 -43.582031 7.609375 -43.765625 8.171875 -43.765625 L 12.125 -43.765625 C 12.6875 -43.765625 13.148438 -43.582031 13.515625 -43.21875 C 13.878906 -42.851562 14.0625 -42.390625 14.0625 -41.828125 L 14.0625 -38.125 C 15.519531 -40.03125 17.351562 -41.585938 19.5625 -42.796875 C 21.78125 -44.003906 24.628906 -44.609375 28.109375 -44.609375 C 31.753906 -44.609375 34.851562 -43.804688 37.40625 -42.203125 C 39.96875 -40.609375 41.90625 -38.394531 43.21875 -35.5625 C 44.539062 -32.726562 45.203125 -29.429688 45.203125 -25.671875 L 45.203125 -1.9375 C 45.203125 -1.375 45.019531 -0.910156 44.65625 -0.546875 C 44.289062 -0.179688 43.828125 0 43.265625 0 L 39.0625 0 C 38.5 0 38.035156 -0.179688 37.671875 -0.546875 C 37.304688 -0.910156 37.125 -1.375 37.125 -1.9375 L 37.125 -25.25 C 37.125 -29.175781 36.164062 -32.25 34.25 -34.46875 C 32.34375 -36.6875 29.539062 -37.796875 25.84375 -37.796875 C 22.363281 -37.796875 19.570312 -36.6875 17.46875 -34.46875 C 15.363281 -32.25 14.3125 -29.175781 14.3125 -25.25 L 14.3125 -1.9375 C 14.3125 -1.375 14.128906 -0.910156 13.765625 -0.546875 C 13.398438 -0.179688 12.9375 0 12.375 0 Z M 8.171875 0 "/></g></g></g><g fill="#000000" fill-opacity="1"><g transform="translate(557.523507, 66.111691)"><g><path d="M 23.3125 0 C 20.175781 0 17.625 -0.601562 15.65625 -1.8125 C 13.6875 -3.019531 12.253906 -4.726562 11.359375 -6.9375 C 10.460938 -9.15625 10.015625 -11.78125 10.015625 -14.8125 L 10.015625 -37.03125 L 3.453125 -37.03125 C 2.890625 -37.03125 2.425781 -37.210938 2.0625 -37.578125 C 1.695312 -37.941406 1.515625 -38.40625 1.515625 -38.96875 L 1.515625 -41.828125 C 1.515625 -42.390625 1.695312 -42.851562 2.0625 -43.21875 C 2.425781 -43.582031 2.890625 -43.765625 3.453125 -43.765625 L 10.015625 -43.765625 L 10.015625 -57.828125 C 10.015625 -58.390625 10.195312 -58.851562 10.5625 -59.21875 C 10.925781 -59.582031 11.390625 -59.765625 11.953125 -59.765625 L 15.90625 -59.765625 C 16.46875 -59.765625 16.929688 -59.582031 17.296875 -59.21875 C 17.660156 -58.851562 17.84375 -58.390625 17.84375 -57.828125 L 17.84375 -43.765625 L 28.28125 -43.765625 C 28.894531 -43.765625 29.367188 -43.582031 29.703125 -43.21875 C 30.046875 -42.851562 30.21875 -42.390625 30.21875 -41.828125 L 30.21875 -38.96875 C 30.21875 -38.40625 30.046875 -37.941406 29.703125 -37.578125 C 29.367188 -37.210938 28.894531 -37.03125 28.28125 -37.03125 L 17.84375 -37.03125 L 17.84375 -15.40625 C 17.84375 -12.769531 18.289062 -10.691406 19.1875 -9.171875 C 20.082031 -7.660156 21.679688 -6.90625 23.984375 -6.90625 L 29.125 -6.90625 C 29.6875 -6.90625 30.148438 -6.722656 30.515625 -6.359375 C 30.878906 -5.992188 31.0625 -5.53125 31.0625 -4.96875 L 31.0625 -1.9375 C 31.0625 -1.375 30.878906 -0.910156 30.515625 -0.546875 C 30.148438 -0.179688 29.6875 0 29.125 0 Z M 23.3125 0 "/></g></g></g></svg>