<svg xmlns="http://www.w3.org/2000/svg" xmlns:xlink="http://www.w3.org/1999/xlink" width="500" zoomAndPan="magnify" viewBox="0 0 375 374.999991" height="500" preserveAspectRatio="xMidYMid meet" version="1.0"><defs><g/><clipPath id="a98d854c57"><path d="M 87 31 L 288 31 L 288 232.660156 L 87 232.660156 Z M 87 31 " clip-rule="nonzero"/></clipPath></defs><g clip-path="url(#a98d854c57)"><path fill="#dc2626" d="M 150.011719 31.117188 L 149.972656 31.15625 C 149.820312 31.167969 149.539062 31.179688 149.386719 31.195312 C 144.242188 31.574219 132.902344 35.480469 124.792969 46.507812 C 118.324219 55.351562 115.78125 66.449219 117.746094 77.363281 C 118.199219 79.507812 118.683594 81.507812 119.3125 83.394531 C 121.449219 89.964844 125.214844 96.253906 129.886719 102.503906 C 133.710938 108.066406 137.230469 112.714844 139.324219 115.972656 C 140.230469 117.355469 141.089844 118.828125 141.710938 120.359375 C 144.355469 126.15625 144.820312 133.519531 142.496094 140.449219 C 139.539062 149.308594 133.121094 154.703125 129.808594 158.1875 C 127.550781 160.300781 127.527344 162.203125 131.253906 161.710938 C 136.402344 161.332031 147.738281 157.472656 155.847656 146.441406 C 162.320312 137.59375 164.898438 126.457031 162.933594 115.542969 C 162.480469 113.40625 161.957031 111.398438 161.328125 109.511719 C 159.191406 102.941406 155.425781 96.652344 150.757812 90.402344 C 146.929688 84.832031 143.410156 80.191406 141.320312 76.933594 C 140.410156 75.554688 139.566406 74.085938 138.929688 72.546875 C 136.285156 66.757812 135.78125 59.429688 138.109375 52.496094 C 141.0625 43.636719 147.472656 38.203125 150.796875 34.71875 C 152.910156 32.734375 153.097656 30.941406 150.011719 31.117188 Z M 197.121094 31.117188 L 197.082031 31.15625 C 196.929688 31.164062 196.648438 31.183594 196.496094 31.195312 C 191.351562 31.574219 180.054688 35.480469 171.941406 46.507812 C 165.472656 55.351562 162.851562 66.449219 164.816406 77.363281 C 165.269531 79.507812 165.8125 81.507812 166.421875 83.394531 C 168.558594 89.964844 172.320312 96.253906 176.992188 102.503906 C 180.8125 108.066406 184.378906 112.714844 186.46875 115.972656 C 187.378906 117.355469 188.160156 118.828125 188.78125 120.359375 C 191.472656 126.15625 192.007812 133.515625 189.679688 140.449219 C 186.726562 149.308594 180.3125 154.699219 176.992188 158.1875 C 174.734375 160.292969 174.714844 162.167969 178.441406 161.710938 C 183.585938 161.332031 194.882812 157.472656 202.996094 146.441406 C 209.464844 137.59375 212.09375 126.457031 210.121094 115.542969 C 209.667969 113.40625 209.136719 111.398438 208.515625 109.511719 C 206.378906 102.941406 202.613281 96.652344 197.945312 90.402344 C 194.117188 84.832031 190.558594 80.191406 188.46875 76.933594 C 187.566406 75.554688 186.777344 74.078125 186.15625 72.546875 C 183.464844 66.757812 182.882812 59.390625 185.21875 52.457031 C 188.171875 43.597656 194.585938 38.207031 197.90625 34.71875 C 200.027344 32.742188 200.214844 30.957031 197.121094 31.117188 Z M 244.269531 31.117188 L 244.269531 31.15625 C 244.117188 31.164062 243.832031 31.183594 243.679688 31.195312 C 238.535156 31.574219 227.238281 35.480469 219.128906 46.507812 C 212.65625 55.351562 210.078125 66.449219 212.039062 77.363281 C 212.496094 79.507812 213 81.507812 213.605469 83.394531 C 215.742188 89.964844 219.507812 96.253906 224.179688 102.503906 C 228 108.066406 231.566406 112.714844 233.65625 115.972656 C 234.566406 117.355469 235.382812 118.828125 236.007812 120.359375 C 238.695312 126.15625 239.160156 133.515625 236.789062 140.449219 C 233.835938 149.308594 227.421875 154.699219 224.101562 158.1875 C 221.84375 160.292969 221.824219 162.167969 225.550781 161.710938 C 230.695312 161.332031 242.03125 157.472656 250.144531 146.441406 C 256.613281 137.59375 259.242188 126.457031 257.269531 115.542969 C 256.816406 113.40625 256.238281 111.398438 255.625 109.511719 C 253.488281 102.941406 249.730469 96.652344 245.050781 90.402344 C 241.226562 84.832031 237.707031 80.191406 235.613281 76.933594 C 234.707031 75.554688 233.863281 74.078125 233.226562 72.546875 C 230.535156 66.757812 230.03125 59.390625 232.402344 52.457031 C 235.359375 43.597656 241.769531 38.207031 245.089844 34.71875 C 247.214844 32.742188 247.359375 30.957031 244.269531 31.117188 Z M 264.316406 138.492188 C 263.753906 138.613281 263.660156 139.335938 264.082031 140.605469 C 264.539062 142.015625 264.867188 143.449219 265.101562 144.875 C 265.480469 147.183594 265.480469 150.984375 265.101562 153.292969 C 261.578125 175.117188 230.972656 192.421875 192.8125 193.902344 C 189.882812 193.972656 185.128906 193.972656 182.203125 193.902344 C 144.042969 192.421875 113.410156 175.113281 109.875 153.292969 C 109.496094 150.972656 109.484375 147.1875 109.875 144.875 C 110.101562 143.472656 110.46875 142.0625 110.894531 140.683594 C 111.652344 138.425781 110.664062 137.847656 108.542969 139.429688 C 96.304688 148.398438 88.988281 159.253906 87.515625 170.601562 C 87.210938 172.917969 87.222656 176.742188 87.515625 179.058594 C 91.152344 207.832031 131.714844 230.722656 182.164062 232.238281 C 185.101562 232.296875 189.847656 232.296875 192.773438 232.238281 C 243.222656 230.722656 283.808594 207.832031 287.460938 179.058594 C 287.765625 176.726562 287.765625 172.917969 287.460938 170.601562 C 286.015625 159.226562 278.699219 148.378906 266.433594 139.390625 C 265.492188 138.699219 264.757812 138.398438 264.316406 138.492188 Z M 264.316406 138.492188 " fill-opacity="1" fill-rule="nonzero"/></g><g fill="#dc2626" fill-opacity="1"><g transform="translate(55.768573, 301.361467)"><g><path d="M 15.171875 0.453125 C 12.597656 0.453125 10.398438 0.015625 8.578125 -0.859375 C 6.765625 -1.742188 5.363281 -3.101562 4.375 -4.9375 C 3.394531 -6.769531 2.847656 -9.078125 2.734375 -11.859375 C 2.703125 -13.171875 2.6875 -14.429688 2.6875 -15.640625 C 2.6875 -16.847656 2.703125 -18.109375 2.734375 -19.421875 C 2.847656 -22.160156 3.421875 -24.445312 4.453125 -26.28125 C 5.484375 -28.113281 6.914062 -29.484375 8.75 -30.390625 C 10.582031 -31.304688 12.722656 -31.765625 15.171875 -31.765625 C 17.578125 -31.765625 19.695312 -31.304688 21.53125 -30.390625 C 23.375 -29.484375 24.816406 -28.113281 25.859375 -26.28125 C 26.898438 -24.445312 27.46875 -22.160156 27.5625 -19.421875 C 27.613281 -18.109375 27.640625 -16.847656 27.640625 -15.640625 C 27.640625 -14.429688 27.613281 -13.171875 27.5625 -11.859375 C 27.46875 -9.078125 26.921875 -6.769531 25.921875 -4.9375 C 24.921875 -3.101562 23.507812 -1.742188 21.6875 -0.859375 C 19.875 0.015625 17.703125 0.453125 15.171875 0.453125 Z M 15.171875 -3.359375 C 17.429688 -3.359375 19.285156 -4.039062 20.734375 -5.40625 C 22.179688 -6.78125 22.960938 -9.003906 23.078125 -12.078125 C 23.140625 -13.421875 23.171875 -14.617188 23.171875 -15.671875 C 23.171875 -16.734375 23.140625 -17.921875 23.078125 -19.234375 C 23.023438 -21.296875 22.644531 -22.96875 21.9375 -24.25 C 21.238281 -25.53125 20.304688 -26.46875 19.140625 -27.0625 C 17.984375 -27.65625 16.660156 -27.953125 15.171875 -27.953125 C 13.671875 -27.953125 12.335938 -27.65625 11.171875 -27.0625 C 10.015625 -26.46875 9.085938 -25.53125 8.390625 -24.25 C 7.691406 -22.96875 7.296875 -21.296875 7.203125 -19.234375 C 7.171875 -17.921875 7.15625 -16.734375 7.15625 -15.671875 C 7.15625 -14.617188 7.171875 -13.421875 7.203125 -12.078125 C 7.316406 -9.003906 8.101562 -6.78125 9.5625 -5.40625 C 11.03125 -4.039062 12.898438 -3.359375 15.171875 -3.359375 Z M 15.171875 -3.359375 "/></g></g></g><g fill="#dc2626" fill-opacity="1"><g transform="translate(86.046647, 301.361467)"><g><path d="M 4.34375 0 C 4.039062 0 3.789062 -0.09375 3.59375 -0.28125 C 3.40625 -0.476562 3.3125 -0.726562 3.3125 -1.03125 L 3.3125 -22.234375 C 3.3125 -22.535156 3.40625 -22.78125 3.59375 -22.96875 C 3.789062 -23.164062 4.039062 -23.265625 4.34375 -23.265625 L 6.4375 -23.265625 C 6.738281 -23.265625 6.984375 -23.164062 7.171875 -22.96875 C 7.367188 -22.78125 7.46875 -22.535156 7.46875 -22.234375 L 7.46875 -20.265625 C 8.25 -21.273438 9.226562 -22.097656 10.40625 -22.734375 C 11.582031 -23.378906 13.09375 -23.703125 14.9375 -23.703125 C 16.875 -23.703125 18.519531 -23.273438 19.875 -22.421875 C 21.238281 -21.578125 22.269531 -20.398438 22.96875 -18.890625 C 23.664062 -17.390625 24.015625 -15.640625 24.015625 -13.640625 L 24.015625 -1.03125 C 24.015625 -0.726562 23.914062 -0.476562 23.71875 -0.28125 C 23.53125 -0.09375 23.289062 0 23 0 L 20.75 0 C 20.457031 0 20.210938 -0.09375 20.015625 -0.28125 C 19.828125 -0.476562 19.734375 -0.726562 19.734375 -1.03125 L 19.734375 -13.421875 C 19.734375 -15.503906 19.222656 -17.132812 18.203125 -18.3125 C 17.191406 -19.488281 15.703125 -20.078125 13.734375 -20.078125 C 11.878906 -20.078125 10.394531 -19.488281 9.28125 -18.3125 C 8.164062 -17.132812 7.609375 -15.503906 7.609375 -13.421875 L 7.609375 -1.03125 C 7.609375 -0.726562 7.507812 -0.476562 7.3125 -0.28125 C 7.113281 -0.09375 6.867188 0 6.578125 0 Z M 4.34375 0 "/></g></g></g><g fill="#dc2626" fill-opacity="1"><g transform="translate(113.149319, 301.361467)"><g><path d="M 11.359375 0.453125 C 9.691406 0.453125 8.257812 0.242188 7.0625 -0.171875 C 5.875 -0.597656 4.90625 -1.109375 4.15625 -1.703125 C 3.414062 -2.296875 2.859375 -2.890625 2.484375 -3.484375 C 2.109375 -4.085938 1.90625 -4.566406 1.875 -4.921875 C 1.84375 -5.242188 1.945312 -5.492188 2.1875 -5.671875 C 2.425781 -5.859375 2.664062 -5.953125 2.90625 -5.953125 L 4.921875 -5.953125 C 5.066406 -5.953125 5.191406 -5.925781 5.296875 -5.875 C 5.398438 -5.832031 5.539062 -5.707031 5.71875 -5.5 C 6.113281 -5.082031 6.546875 -4.664062 7.015625 -4.25 C 7.492188 -3.832031 8.082031 -3.488281 8.78125 -3.21875 C 9.488281 -2.945312 10.363281 -2.8125 11.40625 -2.8125 C 12.925781 -2.8125 14.175781 -3.101562 15.15625 -3.6875 C 16.144531 -4.269531 16.640625 -5.128906 16.640625 -6.265625 C 16.640625 -7.003906 16.4375 -7.597656 16.03125 -8.046875 C 15.632812 -8.492188 14.921875 -8.894531 13.890625 -9.25 C 12.859375 -9.613281 11.445312 -9.988281 9.65625 -10.375 C 7.875 -10.789062 6.457031 -11.304688 5.40625 -11.921875 C 4.363281 -12.535156 3.617188 -13.265625 3.171875 -14.109375 C 2.722656 -14.960938 2.5 -15.925781 2.5 -17 C 2.5 -18.101562 2.828125 -19.164062 3.484375 -20.1875 C 4.140625 -21.21875 5.101562 -22.0625 6.375 -22.71875 C 7.644531 -23.375 9.234375 -23.703125 11.140625 -23.703125 C 12.691406 -23.703125 14.019531 -23.507812 15.125 -23.125 C 16.226562 -22.738281 17.132812 -22.253906 17.84375 -21.671875 C 18.5625 -21.085938 19.097656 -20.515625 19.453125 -19.953125 C 19.816406 -19.390625 20.015625 -18.910156 20.046875 -18.515625 C 20.066406 -18.222656 19.972656 -17.976562 19.765625 -17.78125 C 19.554688 -17.582031 19.320312 -17.484375 19.0625 -17.484375 L 17.171875 -17.484375 C 16.960938 -17.484375 16.789062 -17.53125 16.65625 -17.625 C 16.53125 -17.71875 16.40625 -17.820312 16.28125 -17.9375 C 15.988281 -18.320312 15.640625 -18.707031 15.234375 -19.09375 C 14.828125 -19.488281 14.300781 -19.8125 13.65625 -20.0625 C 13.019531 -20.3125 12.179688 -20.4375 11.140625 -20.4375 C 9.648438 -20.4375 8.53125 -20.125 7.78125 -19.5 C 7.039062 -18.875 6.671875 -18.085938 6.671875 -17.140625 C 6.671875 -16.566406 6.832031 -16.054688 7.15625 -15.609375 C 7.488281 -15.160156 8.113281 -14.757812 9.03125 -14.40625 C 9.957031 -14.050781 11.332031 -13.660156 13.15625 -13.234375 C 15.125 -12.847656 16.671875 -12.328125 17.796875 -11.671875 C 18.929688 -11.015625 19.738281 -10.253906 20.21875 -9.390625 C 20.695312 -8.523438 20.9375 -7.523438 20.9375 -6.390625 C 20.9375 -5.140625 20.578125 -3.992188 19.859375 -2.953125 C 19.140625 -1.910156 18.066406 -1.082031 16.640625 -0.46875 C 15.210938 0.144531 13.453125 0.453125 11.359375 0.453125 Z M 11.359375 0.453125 "/></g></g></g><g fill="#dc2626" fill-opacity="1"><g transform="translate(135.958506, 301.361467)"><g><path d="M 12.609375 0.453125 C 9.515625 0.453125 7.054688 -0.492188 5.234375 -2.390625 C 3.410156 -4.285156 2.410156 -6.875 2.234375 -10.15625 C 2.203125 -10.539062 2.1875 -11.039062 2.1875 -11.65625 C 2.1875 -12.269531 2.203125 -12.769531 2.234375 -13.15625 C 2.359375 -15.269531 2.851562 -17.125 3.71875 -18.71875 C 4.582031 -20.3125 5.765625 -21.539062 7.265625 -22.40625 C 8.773438 -23.269531 10.546875 -23.703125 12.578125 -23.703125 C 14.835938 -23.703125 16.734375 -23.222656 18.265625 -22.265625 C 19.804688 -21.316406 20.976562 -19.960938 21.78125 -18.203125 C 22.59375 -16.441406 23 -14.382812 23 -12.03125 L 23 -11.265625 C 23 -10.941406 22.898438 -10.691406 22.703125 -10.515625 C 22.503906 -10.335938 22.257812 -10.25 21.96875 -10.25 L 6.484375 -10.25 C 6.484375 -10.21875 6.484375 -10.15625 6.484375 -10.0625 C 6.484375 -9.976562 6.484375 -9.90625 6.484375 -9.84375 C 6.546875 -8.613281 6.8125 -7.46875 7.28125 -6.40625 C 7.757812 -5.351562 8.453125 -4.5 9.359375 -3.84375 C 10.273438 -3.1875 11.347656 -2.859375 12.578125 -2.859375 C 13.648438 -2.859375 14.539062 -3.019531 15.25 -3.34375 C 15.96875 -3.675781 16.550781 -4.046875 17 -4.453125 C 17.445312 -4.859375 17.742188 -5.175781 17.890625 -5.40625 C 18.160156 -5.769531 18.367188 -5.988281 18.515625 -6.0625 C 18.671875 -6.132812 18.910156 -6.171875 19.234375 -6.171875 L 21.421875 -6.171875 C 21.691406 -6.171875 21.921875 -6.085938 22.109375 -5.921875 C 22.304688 -5.765625 22.394531 -5.535156 22.375 -5.234375 C 22.34375 -4.785156 22.101562 -4.238281 21.65625 -3.59375 C 21.207031 -2.957031 20.570312 -2.328125 19.75 -1.703125 C 18.925781 -1.078125 17.910156 -0.5625 16.703125 -0.15625 C 15.492188 0.25 14.128906 0.453125 12.609375 0.453125 Z M 6.484375 -13.328125 L 18.75 -13.328125 L 18.75 -13.46875 C 18.75 -14.8125 18.5 -16.003906 18 -17.046875 C 17.507812 -18.085938 16.800781 -18.910156 15.875 -19.515625 C 14.957031 -20.128906 13.859375 -20.4375 12.578125 -20.4375 C 11.285156 -20.4375 10.1875 -20.128906 9.28125 -19.515625 C 8.375 -18.910156 7.679688 -18.085938 7.203125 -17.046875 C 6.722656 -16.003906 6.484375 -14.8125 6.484375 -13.46875 Z M 6.484375 -13.328125 "/></g></g></g><g fill="#dc2626" fill-opacity="1"><g transform="translate(161.003889, 301.361467)"><g><path d="M 4.34375 0 C 4.039062 0 3.789062 -0.09375 3.59375 -0.28125 C 3.40625 -0.476562 3.3125 -0.726562 3.3125 -1.03125 L 3.3125 -22.234375 C 3.3125 -22.535156 3.40625 -22.78125 3.59375 -22.96875 C 3.789062 -23.164062 4.039062 -23.265625 4.34375 -23.265625 L 6.4375 -23.265625 C 6.738281 -23.265625 6.984375 -23.164062 7.171875 -22.96875 C 7.367188 -22.78125 7.46875 -22.535156 7.46875 -22.234375 L 7.46875 -20.265625 C 8.25 -21.273438 9.226562 -22.097656 10.40625 -22.734375 C 11.582031 -23.378906 13.09375 -23.703125 14.9375 -23.703125 C 16.875 -23.703125 18.519531 -23.273438 19.875 -22.421875 C 21.238281 -21.578125 22.269531 -20.398438 22.96875 -18.890625 C 23.664062 -17.390625 24.015625 -15.640625 24.015625 -13.640625 L 24.015625 -1.03125 C 24.015625 -0.726562 23.914062 -0.476562 23.71875 -0.28125 C 23.53125 -0.09375 23.289062 0 23 0 L 20.75 0 C 20.457031 0 20.210938 -0.09375 20.015625 -0.28125 C 19.828125 -0.476562 19.734375 -0.726562 19.734375 -1.03125 L 19.734375 -13.421875 C 19.734375 -15.503906 19.222656 -17.132812 18.203125 -18.3125 C 17.191406 -19.488281 15.703125 -20.078125 13.734375 -20.078125 C 11.878906 -20.078125 10.394531 -19.488281 9.28125 -18.3125 C 8.164062 -17.132812 7.609375 -15.503906 7.609375 -13.421875 L 7.609375 -1.03125 C 7.609375 -0.726562 7.507812 -0.476562 7.3125 -0.28125 C 7.113281 -0.09375 6.867188 0 6.578125 0 Z M 4.34375 0 "/></g></g></g><g fill="#000000" fill-opacity="1"><g transform="translate(188.122016, 301.361467)"><g><path d="M 11.765625 0 C 11.460938 0 11.210938 -0.09375 11.015625 -0.28125 C 10.828125 -0.476562 10.734375 -0.726562 10.734375 -1.03125 L 10.734375 -27.328125 L 2.140625 -27.328125 C 1.847656 -27.328125 1.601562 -27.425781 1.40625 -27.625 C 1.21875 -27.820312 1.125 -28.066406 1.125 -28.359375 L 1.125 -30.234375 C 1.125 -30.566406 1.21875 -30.828125 1.40625 -31.015625 C 1.601562 -31.210938 1.847656 -31.3125 2.140625 -31.3125 L 23.703125 -31.3125 C 24.035156 -31.3125 24.296875 -31.210938 24.484375 -31.015625 C 24.679688 -30.828125 24.78125 -30.566406 24.78125 -30.234375 L 24.78125 -28.359375 C 24.78125 -28.066406 24.679688 -27.820312 24.484375 -27.625 C 24.296875 -27.425781 24.035156 -27.328125 23.703125 -27.328125 L 15.171875 -27.328125 L 15.171875 -1.03125 C 15.171875 -0.726562 15.070312 -0.476562 14.875 -0.28125 C 14.675781 -0.09375 14.414062 0 14.09375 0 Z M 11.765625 0 "/></g></g></g><g fill="#000000" fill-opacity="1"><g transform="translate(214.017157, 301.361467)"><g><path d="M 9.796875 0.453125 C 8.304688 0.453125 6.945312 0.15625 5.71875 -0.4375 C 4.5 -1.039062 3.515625 -1.847656 2.765625 -2.859375 C 2.023438 -3.878906 1.65625 -5.03125 1.65625 -6.3125 C 1.65625 -8.363281 2.488281 -10 4.15625 -11.21875 C 5.832031 -12.445312 8.007812 -13.253906 10.6875 -13.640625 L 17.359375 -14.578125 L 17.359375 -15.875 C 17.359375 -17.3125 16.945312 -18.429688 16.125 -19.234375 C 15.300781 -20.035156 13.96875 -20.4375 12.125 -20.4375 C 10.8125 -20.4375 9.738281 -20.164062 8.90625 -19.625 C 8.070312 -19.09375 7.488281 -18.410156 7.15625 -17.578125 C 6.976562 -17.128906 6.664062 -16.90625 6.21875 -16.90625 L 4.203125 -16.90625 C 3.878906 -16.90625 3.632812 -17 3.46875 -17.1875 C 3.300781 -17.382812 3.21875 -17.617188 3.21875 -17.890625 C 3.21875 -18.335938 3.390625 -18.890625 3.734375 -19.546875 C 4.078125 -20.203125 4.601562 -20.84375 5.3125 -21.46875 C 6.03125 -22.09375 6.945312 -22.617188 8.0625 -23.046875 C 9.1875 -23.484375 10.554688 -23.703125 12.171875 -23.703125 C 13.960938 -23.703125 15.46875 -23.472656 16.6875 -23.015625 C 17.90625 -22.554688 18.863281 -21.9375 19.5625 -21.15625 C 20.269531 -20.382812 20.78125 -19.503906 21.09375 -18.515625 C 21.40625 -17.535156 21.5625 -16.535156 21.5625 -15.515625 L 21.5625 -1.03125 C 21.5625 -0.726562 21.460938 -0.476562 21.265625 -0.28125 C 21.078125 -0.09375 20.832031 0 20.53125 0 L 18.46875 0 C 18.144531 0 17.894531 -0.09375 17.71875 -0.28125 C 17.539062 -0.476562 17.453125 -0.726562 17.453125 -1.03125 L 17.453125 -2.953125 C 17.054688 -2.410156 16.53125 -1.878906 15.875 -1.359375 C 15.21875 -0.835938 14.394531 -0.40625 13.40625 -0.0625 C 12.425781 0.28125 11.222656 0.453125 9.796875 0.453125 Z M 10.734375 -2.90625 C 11.960938 -2.90625 13.082031 -3.164062 14.09375 -3.6875 C 15.101562 -4.207031 15.898438 -5.019531 16.484375 -6.125 C 17.066406 -7.226562 17.359375 -8.613281 17.359375 -10.28125 L 17.359375 -11.546875 L 12.171875 -10.78125 C 10.046875 -10.476562 8.445312 -9.976562 7.375 -9.28125 C 6.300781 -8.582031 5.765625 -7.695312 5.765625 -6.625 C 5.765625 -5.789062 6.007812 -5.097656 6.5 -4.546875 C 7 -3.992188 7.628906 -3.582031 8.390625 -3.3125 C 9.148438 -3.039062 9.929688 -2.90625 10.734375 -2.90625 Z M 10.734375 -2.90625 "/></g></g></g><g fill="#000000" fill-opacity="1"><g transform="translate(238.704753, 301.361467)"><g><path d="M 4.390625 0 C 4.085938 0 3.835938 -0.09375 3.640625 -0.28125 C 3.453125 -0.476562 3.359375 -0.726562 3.359375 -1.03125 L 3.359375 -30.734375 C 3.359375 -31.035156 3.453125 -31.28125 3.640625 -31.46875 C 3.835938 -31.664062 4.085938 -31.765625 4.390625 -31.765625 L 6.484375 -31.765625 C 6.816406 -31.765625 7.070312 -31.664062 7.25 -31.46875 C 7.425781 -31.28125 7.515625 -31.035156 7.515625 -30.734375 L 7.515625 -1.03125 C 7.515625 -0.726562 7.425781 -0.476562 7.25 -0.28125 C 7.070312 -0.09375 6.816406 0 6.484375 0 Z M 4.390625 0 "/></g></g></g><g fill="#000000" fill-opacity="1"><g transform="translate(249.572654, 301.361467)"><g><path d="M 12.609375 0.453125 C 9.515625 0.453125 7.054688 -0.492188 5.234375 -2.390625 C 3.410156 -4.285156 2.410156 -6.875 2.234375 -10.15625 C 2.203125 -10.539062 2.1875 -11.039062 2.1875 -11.65625 C 2.1875 -12.269531 2.203125 -12.769531 2.234375 -13.15625 C 2.359375 -15.269531 2.851562 -17.125 3.71875 -18.71875 C 4.582031 -20.3125 5.765625 -21.539062 7.265625 -22.40625 C 8.773438 -23.269531 10.546875 -23.703125 12.578125 -23.703125 C 14.835938 -23.703125 16.734375 -23.222656 18.265625 -22.265625 C 19.804688 -21.316406 20.976562 -19.960938 21.78125 -18.203125 C 22.59375 -16.441406 23 -14.382812 23 -12.03125 L 23 -11.265625 C 23 -10.941406 22.898438 -10.691406 22.703125 -10.515625 C 22.503906 -10.335938 22.257812 -10.25 21.96875 -10.25 L 6.484375 -10.25 C 6.484375 -10.21875 6.484375 -10.15625 6.484375 -10.0625 C 6.484375 -9.976562 6.484375 -9.90625 6.484375 -9.84375 C 6.546875 -8.613281 6.8125 -7.46875 7.28125 -6.40625 C 7.757812 -5.351562 8.453125 -4.5 9.359375 -3.84375 C 10.273438 -3.1875 11.347656 -2.859375 12.578125 -2.859375 C 13.648438 -2.859375 14.539062 -3.019531 15.25 -3.34375 C 15.96875 -3.675781 16.550781 -4.046875 17 -4.453125 C 17.445312 -4.859375 17.742188 -5.175781 17.890625 -5.40625 C 18.160156 -5.769531 18.367188 -5.988281 18.515625 -6.0625 C 18.671875 -6.132812 18.910156 -6.171875 19.234375 -6.171875 L 21.421875 -6.171875 C 21.691406 -6.171875 21.921875 -6.085938 22.109375 -5.921875 C 22.304688 -5.765625 22.394531 -5.535156 22.375 -5.234375 C 22.34375 -4.785156 22.101562 -4.238281 21.65625 -3.59375 C 21.207031 -2.957031 20.570312 -2.328125 19.75 -1.703125 C 18.925781 -1.078125 17.910156 -0.5625 16.703125 -0.15625 C 15.492188 0.25 14.128906 0.453125 12.609375 0.453125 Z M 6.484375 -13.328125 L 18.75 -13.328125 L 18.75 -13.46875 C 18.75 -14.8125 18.5 -16.003906 18 -17.046875 C 17.507812 -18.085938 16.800781 -18.910156 15.875 -19.515625 C 14.957031 -20.128906 13.859375 -20.4375 12.578125 -20.4375 C 11.285156 -20.4375 10.1875 -20.128906 9.28125 -19.515625 C 8.375 -18.910156 7.679688 -18.085938 7.203125 -17.046875 C 6.722656 -16.003906 6.484375 -14.8125 6.484375 -13.46875 Z M 6.484375 -13.328125 "/></g></g></g><g fill="#000000" fill-opacity="1"><g transform="translate(274.618038, 301.361467)"><g><path d="M 4.34375 0 C 4.039062 0 3.789062 -0.09375 3.59375 -0.28125 C 3.40625 -0.476562 3.3125 -0.726562 3.3125 -1.03125 L 3.3125 -22.234375 C 3.3125 -22.535156 3.40625 -22.78125 3.59375 -22.96875 C 3.789062 -23.164062 4.039062 -23.265625 4.34375 -23.265625 L 6.4375 -23.265625 C 6.738281 -23.265625 6.984375 -23.164062 7.171875 -22.96875 C 7.367188 -22.78125 7.46875 -22.535156 7.46875 -22.234375 L 7.46875 -20.265625 C 8.25 -21.273438 9.226562 -22.097656 10.40625 -22.734375 C 11.582031 -23.378906 13.09375 -23.703125 14.9375 -23.703125 C 16.875 -23.703125 18.519531 -23.273438 19.875 -22.421875 C 21.238281 -21.578125 22.269531 -20.398438 22.96875 -18.890625 C 23.664062 -17.390625 24.015625 -15.640625 24.015625 -13.640625 L 24.015625 -1.03125 C 24.015625 -0.726562 23.914062 -0.476562 23.71875 -0.28125 C 23.53125 -0.09375 23.289062 0 23 0 L 20.75 0 C 20.457031 0 20.210938 -0.09375 20.015625 -0.28125 C 19.828125 -0.476562 19.734375 -0.726562 19.734375 -1.03125 L 19.734375 -13.421875 C 19.734375 -15.503906 19.222656 -17.132812 18.203125 -18.3125 C 17.191406 -19.488281 15.703125 -20.078125 13.734375 -20.078125 C 11.878906 -20.078125 10.394531 -19.488281 9.28125 -18.3125 C 8.164062 -17.132812 7.609375 -15.503906 7.609375 -13.421875 L 7.609375 -1.03125 C 7.609375 -0.726562 7.507812 -0.476562 7.3125 -0.28125 C 7.113281 -0.09375 6.867188 0 6.578125 0 Z M 4.34375 0 "/></g></g></g><g fill="#000000" fill-opacity="1"><g transform="translate(301.72071, 301.361467)"><g><path d="M 12.390625 0 C 10.722656 0 9.363281 -0.316406 8.3125 -0.953125 C 7.269531 -1.597656 6.507812 -2.507812 6.03125 -3.6875 C 5.5625 -4.863281 5.328125 -6.257812 5.328125 -7.875 L 5.328125 -19.6875 L 1.828125 -19.6875 C 1.535156 -19.6875 1.289062 -19.78125 1.09375 -19.96875 C 0.90625 -20.164062 0.8125 -20.414062 0.8125 -20.71875 L 0.8125 -22.234375 C 0.8125 -22.535156 0.90625 -22.78125 1.09375 -22.96875 C 1.289062 -23.164062 1.535156 -23.265625 1.828125 -23.265625 L 5.328125 -23.265625 L 5.328125 -30.734375 C 5.328125 -31.035156 5.421875 -31.28125 5.609375 -31.46875 C 5.804688 -31.664062 6.054688 -31.765625 6.359375 -31.765625 L 8.453125 -31.765625 C 8.753906 -31.765625 9 -31.664062 9.1875 -31.46875 C 9.382812 -31.28125 9.484375 -31.035156 9.484375 -30.734375 L 9.484375 -23.265625 L 15.03125 -23.265625 C 15.351562 -23.265625 15.601562 -23.164062 15.78125 -22.96875 C 15.96875 -22.78125 16.0625 -22.535156 16.0625 -22.234375 L 16.0625 -20.71875 C 16.0625 -20.414062 15.96875 -20.164062 15.78125 -19.96875 C 15.601562 -19.78125 15.351562 -19.6875 15.03125 -19.6875 L 9.484375 -19.6875 L 9.484375 -8.1875 C 9.484375 -6.78125 9.722656 -5.675781 10.203125 -4.875 C 10.679688 -4.070312 11.53125 -3.671875 12.75 -3.671875 L 15.484375 -3.671875 C 15.773438 -3.671875 16.015625 -3.570312 16.203125 -3.375 C 16.398438 -3.1875 16.5 -2.941406 16.5 -2.640625 L 16.5 -1.03125 C 16.5 -0.726562 16.398438 -0.476562 16.203125 -0.28125 C 16.015625 -0.09375 15.773438 0 15.484375 0 Z M 12.390625 0 "/></g></g></g></svg>